# Blender v2.91.2 OBJ File: 'Cocos.blend'
# www.blender.org
mtllib Cocos.mtl
o Cube_Cube.001
v -0.500000 0.997273 0.621345
v -0.500000 1.943289 0.621345
v -0.500000 1.024265 -0.459552
v -0.500000 1.997273 -0.459552
v 0.500000 0.997273 0.621345
v 0.500000 1.943289 0.621345
v 0.500000 1.024265 -0.459552
v 0.500000 1.997273 -0.459552
v -0.572933 0.948451 -0.239751
v -0.609568 0.905637 0.080897
v -0.572933 0.933127 0.401545
v -0.572933 1.187038 0.700178
v -0.609568 1.465845 0.739777
v -0.572933 1.747618 0.700178
v -0.572933 2.023901 0.401545
v -0.609568 2.075413 0.080897
v -0.572933 2.056620 -0.239751
v -0.572933 1.802710 -0.538384
v -0.609568 1.515205 -0.577983
v -0.572933 1.224733 -0.538384
v 0.296650 0.954501 -0.538384
v 0.000000 0.919320 -0.577983
v -0.296650 0.954502 -0.538384
v -0.296650 2.072942 -0.538384
v -0.000000 2.111089 -0.577983
v 0.296650 2.072942 -0.538384
v 0.572933 1.802710 -0.538384
v 0.609568 1.515205 -0.577983
v 0.572933 1.224733 -0.538384
v 0.572933 0.933127 0.401545
v 0.609568 0.905637 0.080897
v 0.572933 0.948451 -0.239751
v 0.572933 2.056620 -0.239751
v 0.609568 2.075413 0.080897
v 0.572933 2.023901 0.401545
v 0.572933 1.747618 0.700178
v 0.609568 1.465845 0.739777
v 0.572933 1.187038 0.700178
v -0.296650 0.927076 0.700178
v -0.000000 0.891953 0.739777
v 0.296650 0.927076 0.700178
v 0.296650 2.007580 0.700178
v -0.000000 2.039736 0.739777
v -0.296650 2.007580 0.700178
v -0.610461 1.063402 0.547583
v -0.698026 1.323251 0.593674
v -0.698026 1.619384 0.593674
v -0.610461 1.882685 0.547583
v -0.728990 1.176596 0.422630
v -0.781829 1.477037 0.440987
v -0.728990 1.778852 0.422630
v -0.698026 1.030717 0.249615
v -0.810862 1.323507 0.262036
v -0.810862 1.643973 0.262036
v -0.698026 1.937693 0.249615
v -0.781829 1.170872 0.080897
v -0.839506 1.490525 0.080897
v -0.781829 1.810177 0.080897
v -0.698026 1.039947 -0.087822
v -0.810862 1.335949 -0.100242
v -0.810862 1.658671 -0.100242
v -0.698026 1.953742 -0.087822
v -0.728990 1.197740 -0.260836
v -0.781829 1.504013 -0.279194
v -0.728990 1.808910 -0.260836
v -0.610461 1.089092 -0.385790
v -0.698026 1.358256 -0.431881
v -0.698026 1.661208 -0.431881
v -0.610461 1.926920 -0.385790
v -0.431759 1.093651 -0.578949
v -0.474400 1.366098 -0.673597
v -0.474400 1.671475 -0.673597
v -0.431759 1.936831 -0.578949
v -0.316157 1.210171 -0.707066
v -0.333140 1.522179 -0.764179
v -0.316157 1.829909 -0.707066
v -0.156091 1.053930 -0.673597
v -0.167582 1.358676 -0.795562
v -0.167582 1.688034 -0.795562
v -0.156091 1.983643 -0.673597
v 0.000000 1.194967 -0.764179
v 0.000000 1.524515 -0.826523
v -0.000000 1.849392 -0.764179
v 0.156091 1.053929 -0.673597
v 0.167582 1.358676 -0.795562
v 0.167582 1.688034 -0.795562
v 0.156091 1.983643 -0.673597
v 0.316157 1.210171 -0.707066
v 0.333140 1.522179 -0.764179
v 0.316157 1.829909 -0.707066
v 0.431759 1.093651 -0.578949
v 0.474400 1.366098 -0.673597
v 0.474400 1.671475 -0.673597
v 0.431759 1.936831 -0.578949
v 0.610461 1.089092 -0.385790
v 0.698026 1.358256 -0.431881
v 0.698026 1.661208 -0.431881
v 0.610461 1.926920 -0.385790
v 0.728990 1.197740 -0.260836
v 0.781829 1.504013 -0.279194
v 0.728990 1.808910 -0.260836
v 0.698026 1.039947 -0.087822
v 0.810862 1.335948 -0.100242
v 0.810862 1.658671 -0.100242
v 0.698026 1.953742 -0.087822
v 0.781829 1.170872 0.080897
v 0.839506 1.490525 0.080897
v 0.781829 1.810177 0.080897
v 0.698026 1.030717 0.249615
v 0.810862 1.323507 0.262036
v 0.810862 1.643973 0.262036
v 0.698026 1.937693 0.249615
v 0.728990 1.176596 0.422630
v 0.781829 1.477037 0.440987
v 0.728990 1.778852 0.422630
v 0.610461 1.063402 0.547583
v 0.698026 1.323251 0.593674
v 0.698026 1.619384 0.593674
v 0.610461 1.882685 0.547583
v 0.431759 1.058843 0.740742
v 0.474400 1.315409 0.835390
v 0.474400 1.609117 0.835390
v 0.431759 1.872774 0.740742
v 0.316157 1.164165 0.868860
v 0.333140 1.458870 0.925973
v 0.316157 1.757854 0.868860
v 0.156091 1.016735 0.835391
v 0.167582 1.300779 0.957355
v 0.167582 1.614610 0.957355
v 0.156091 1.907791 0.835391
v -0.000000 1.146778 0.925973
v -0.000000 1.456535 0.988316
v 0.000000 1.770962 0.925973
v -0.156091 1.016735 0.835391
v -0.167582 1.300779 0.957355
v -0.167582 1.614610 0.957355
v -0.156091 1.907791 0.835391
v -0.316157 1.164165 0.868860
v -0.333140 1.458870 0.925973
v -0.316157 1.757854 0.868860
v -0.431759 1.058843 0.740742
v -0.474400 1.315409 0.835391
v -0.474400 1.609117 0.835391
v -0.431759 1.872774 0.740742
v -0.431759 0.914949 -0.385790
v -0.156091 0.830304 -0.431881
v 0.156091 0.830304 -0.431881
v 0.431759 0.914949 -0.385790
v -0.316157 0.797338 -0.260836
v -0.000000 0.746278 -0.279194
v 0.316157 0.797338 -0.260836
v -0.474400 0.824163 -0.087822
v -0.167582 0.715396 -0.100242
v 0.167582 0.715396 -0.100242
v 0.474400 0.824163 -0.087822
v -0.333140 0.740351 0.080897
v 0.000000 0.685008 0.080897
v 0.333140 0.740351 0.080897
v -0.474400 0.817358 0.249615
v -0.167582 0.709589 0.262036
v 0.167582 0.709589 0.262036
v 0.474400 0.817358 0.249615
v -0.316157 0.784762 0.422630
v 0.000000 0.734423 0.440987
v 0.316157 0.784762 0.422630
v -0.431759 0.894611 0.547583
v -0.156091 0.811217 0.593674
v 0.156091 0.811217 0.593674
v 0.431759 0.894611 0.547583
v 0.431759 2.101062 -0.385790
v 0.156091 2.189161 -0.431881
v -0.156091 2.189161 -0.431881
v -0.431759 2.101063 -0.385790
v 0.316157 2.209312 -0.260836
v 0.000000 2.261747 -0.279194
v -0.316157 2.209312 -0.260836
v 0.474400 2.169526 -0.087822
v 0.167582 2.279223 -0.100242
v -0.167582 2.279223 -0.100242
v -0.474400 2.169526 -0.087822
v 0.333140 2.240699 0.080897
v -0.000000 2.296041 0.080897
v -0.333140 2.240699 0.080897
v 0.474400 2.151052 0.249615
v 0.167582 2.257890 0.262036
v -0.167582 2.257890 0.262036
v -0.474400 2.151052 0.249615
v 0.316157 2.170686 0.422630
v -0.000000 2.219651 0.440987
v -0.316157 2.170686 0.422630
v 0.431759 2.051476 0.547583
v 0.156091 2.131417 0.593674
v -0.156091 2.131417 0.593674
v -0.431759 2.051476 0.547583
vt 0.308766 0.315982
vt 0.283592 0.331319
vt 0.274970 0.306687
vt 0.295233 0.292559
vt 0.348542 0.324452
vt 0.322878 0.344261
vt 0.331321 0.297321
vt 0.392977 0.330829
vt 0.368911 0.355417
vt 0.372194 0.303681
vt 0.229694 0.381418
vt 0.225689 0.348465
vt 0.255622 0.341816
vt 0.262070 0.373485
vt 0.191059 0.457619
vt 0.198687 0.420480
vt 0.232709 0.418161
vt 0.231865 0.460370
vt 0.279739 0.504387
vt 0.274925 0.453936
vt 0.318377 0.439371
vt 0.332415 0.488819
vt 0.197197 0.386945
vt 0.091959 0.524827
vt 0.128137 0.478244
vt 0.175024 0.501849
vt 0.151832 0.558545
vt 0.251033 0.313785
vt 0.250909 0.287798
vt 0.268593 0.289544
vt 0.313966 0.273700
vt 0.353770 0.276743
vt 0.398187 0.285058
vt 0.409761 0.310369
vt 0.269022 0.410540
vt 0.433374 0.272783
vt 0.483999 0.264774
vt 0.486720 0.327730
vt 0.438244 0.316131
vt 0.395259 0.390366
vt 0.423531 0.356467
vt 0.466055 0.386185
vt 0.428867 0.431996
vt 0.558393 0.347097
vt 0.526177 0.428456
vt 0.382988 0.465181
vt 0.472249 0.488274
vt 0.409899 0.524684
vt 0.740587 0.247327
vt 0.710866 0.273075
vt 0.684335 0.238877
vt 0.717519 0.217240
vt 0.564762 0.129543
vt 0.592929 0.084306
vt 0.626077 0.124305
vt 0.599151 0.144503
vt 0.675298 0.303874
vt 0.644379 0.263664
vt 0.285876 0.565109
vt 0.219042 0.571786
vt 0.226727 0.509780
vt 0.754927 0.366228
vt 0.731869 0.416788
vt 0.678537 0.386048
vt 0.712876 0.339080
vt 0.803386 0.292652
vt 0.779668 0.326496
vt 0.743372 0.302521
vt 0.769577 0.272184
vt 0.155314 0.442638
vt 0.172819 0.419490
vt 0.164599 0.394794
vt 0.192313 0.174127
vt 0.176182 0.205248
vt 0.135090 0.189171
vt 0.159023 0.151986
vt 0.193156 0.353762
vt 0.813670 0.148075
vt 0.813087 0.183993
vt 0.779230 0.186696
vt 0.773463 0.153787
vt 0.223358 0.317034
vt 0.156859 0.360904
vt 0.606990 0.178432
vt 0.622074 0.220875
vt 0.569706 0.237101
vt 0.558594 0.182233
vt 0.012685 0.414044
vt 0.070094 0.391104
vt 0.092526 0.439299
vt 0.043760 0.475739
vt 0.818165 0.347219
vt 0.797936 0.385389
vt 0.788149 0.433650
vt 0.911348 0.291447
vt 0.885799 0.334566
vt 0.841866 0.311970
vt 0.863980 0.274582
vt 0.988855 0.253039
vt 0.967473 0.311899
vt 0.930731 0.243309
vt 0.593834 0.291336
vt 0.130882 0.412212
vt 0.663439 0.202046
vt 0.646332 0.163451
vt 0.753698 0.006379
vt 0.760296 0.064567
vt 0.709495 0.079367
vt 0.692484 0.022728
vt 0.683533 0.144490
vt 0.699815 0.182981
vt 0.862872 0.057838
vt 0.857659 0.105056
vt 0.812809 0.106586
vt 0.812852 0.057508
vt 0.735438 0.166070
vt 0.748187 0.198844
vt 0.767069 0.113457
vt 0.723314 0.126827
vt 0.765594 0.225409
vt 0.783825 0.209512
vt 0.942268 0.193471
vt 0.881686 0.233539
vt 0.892788 0.190452
vt 0.791580 0.244491
vt 0.824493 0.259672
vt 0.166343 0.085161
vt 0.118653 0.120500
vt 0.061521 0.077780
vt 0.126107 0.025688
vt 0.280823 0.075031
vt 0.223669 0.070118
vt 0.206038 0.000100
vt 0.286631 0.003440
vt 0.856869 0.370709
vt 0.832694 0.396225
vt 0.844149 0.432196
vt 0.163124 0.241838
vt 0.155136 0.281965
vt 0.110416 0.280690
vt 0.118911 0.232968
vt 0.000280 0.347101
vt 0.059612 0.337337
vt 0.225073 0.285833
vt 0.191113 0.319381
vt 0.193306 0.283814
vt 0.116294 0.373121
vt 0.807166 0.215973
vt 0.840808 0.224306
vt 0.086035 0.168675
vt 0.021068 0.144669
vt 0.232807 0.119214
vt 0.192032 0.126671
vt 0.999900 0.136381
vt 0.999900 0.192985
vt 0.946119 0.145615
vt 0.298941 0.180376
vt 0.266162 0.165470
vt 0.274787 0.125911
vt 0.315118 0.142284
vt 0.310416 0.229535
vt 0.283825 0.211739
vt 0.329761 0.200892
vt 0.352886 0.166600
vt 0.894555 0.407348
vt 0.850398 0.186508
vt 0.935933 0.364679
vt 0.854885 0.147211
vt 0.898256 0.147757
vt 0.900964 0.105779
vt 0.379757 0.254988
vt 0.357101 0.226303
vt 0.386318 0.197205
vt 0.414425 0.232327
vt 0.943876 0.102402
vt 0.907146 0.063553
vt 0.939084 0.070448
vt 0.358325 0.029487
vt 0.333510 0.094402
vt 0.293826 0.253745
vt 0.270075 0.238289
vt 0.233085 0.156258
vt 0.206207 0.152094
vt 0.224123 0.186869
vt 0.211878 0.216939
vt 0.067164 0.223158
vt 0.003862 0.214559
vt 0.965005 0.045512
vt 0.988929 0.086125
vt 0.421164 0.066549
vt 0.381643 0.124238
vt 0.242868 0.226946
vt 0.254962 0.198061
vt 0.279393 0.274521
vt 0.333762 0.251700
vt 0.258296 0.263041
vt 0.153219 0.322639
vt 0.109501 0.328588
vt 0.425619 0.161279
vt 0.477789 0.113977
vt 0.528062 0.176570
vt 0.461070 0.208108
vt 0.293746 0.361212
vt 0.059000 0.280403
vt 0.305425 0.397049
vt 0.339399 0.378161
vt 0.359449 0.417982
vt 0.232137 0.255607
vt 0.000100 0.281032
vt 0.200763 0.249054
vt 0.664132 0.100197
vt 0.637711 0.048823
vt 0.348148 0.546741
vt 0.925458 0.019107
vt 0.874683 0.004490
vt 0.558393 0.257400
vt 0.816216 0.000100
vt 0.630355 0.343458
vn -0.8496 -0.1819 0.4951
vn -0.8802 -0.3607 0.3085
vn -0.7379 -0.5127 0.4389
vn -0.6910 -0.3490 0.6330
vn -0.8441 0.1798 0.5052
vn -0.9440 -0.0003 0.3299
vn -0.7320 -0.0008 0.6813
vn -0.7254 0.5038 0.4690
vn -0.8728 0.3572 0.3324
vn -0.6799 0.3425 0.6483
vn -0.8236 -0.5410 -0.1700
vn -0.6935 -0.7203 -0.0166
vn -0.8251 -0.5470 0.1415
vn -0.9311 -0.3645 -0.0109
vn -0.6851 -0.3350 -0.6468
vn -0.7342 -0.4972 -0.4622
vn -0.8762 -0.3530 -0.3281
vn -0.8453 -0.1762 -0.5043
vn -0.8508 0.1783 -0.4944
vn -0.9441 0.0003 -0.3298
vn -0.9714 0.1804 -0.1541
vn -0.8833 0.3563 -0.3045
vn -0.6626 -0.6820 -0.3095
vn -0.1848 -0.1872 -0.9648
vn -0.3575 -0.3636 -0.8602
vn -0.5517 -0.1798 -0.8144
vn -0.3753 0.0011 -0.9269
vn -0.6627 -0.6952 0.2785
vn -0.4786 -0.7658 0.4295
vn -0.5835 -0.6159 0.5293
vn -0.5559 -0.1894 0.8094
vn -0.5499 0.1855 0.8143
vn -0.4845 0.5124 0.7090
vn -0.5684 0.6012 0.5616
vn -0.9694 -0.1798 -0.1671
vn -0.3134 0.6940 0.6482
vn -0.1618 0.8405 0.5170
vn -0.3262 0.8774 0.3517
vn -0.4670 0.7466 0.4737
vn -0.8198 0.5433 0.1807
vn -0.6526 0.6844 0.3250
vn -0.5094 0.8378 0.1964
vn -0.6932 0.7198 0.0362
vn -0.1650 0.9640 0.2082
vn -0.3401 0.9389 0.0522
vn -0.8285 0.5444 -0.1309
vn -0.5203 0.8469 -0.1095
vn -0.6723 0.6920 -0.2629
vn 0.3657 0.3739 -0.8523
vn 0.1873 0.1919 -0.9633
vn 0.0000 0.3886 -0.9214
vn 0.1810 0.5758 -0.7973
vn -0.7465 0.5058 -0.4323
vn -0.4921 0.7648 -0.4158
vn -0.5967 0.6092 -0.5223
vn 0.0000 0.0011 -1.0000
vn -0.1873 0.1919 -0.9633
vn -0.6961 0.3412 -0.6317
vn -0.5575 0.1835 -0.8096
vn -0.7320 0.0008 -0.6812
vn 0.3575 -0.3636 -0.8602
vn 0.1751 -0.5557 -0.8127
vn 0.0000 -0.3768 -0.9263
vn 0.1848 -0.1872 -0.9648
vn 0.7320 0.0008 -0.6812
vn 0.5517 -0.1798 -0.8144
vn 0.3753 0.0011 -0.9269
vn 0.5575 0.1835 -0.8096
vn -0.4942 -0.5042 -0.7082
vn -0.5817 -0.5950 -0.5546
vn -0.4805 -0.7463 -0.4605
vn 0.4786 -0.7658 0.4295
vn 0.3330 -0.8961 0.2933
vn 0.5145 -0.8466 0.1362
vn 0.6627 -0.6952 0.2785
vn -0.5159 -0.8396 -0.1702
vn 0.5203 0.8469 -0.1095
vn 0.6723 0.6920 -0.2629
vn 0.4921 0.7648 -0.4158
vn 0.3422 0.9008 -0.2674
vn -0.5145 -0.8466 0.1362
vn -0.3357 -0.8834 -0.3270
vn -0.5071 0.5187 -0.6883
vn -0.3657 0.3739 -0.8523
vn 0.0000 -0.7317 -0.6816
vn -0.1751 -0.5557 -0.8127
vn 0.6851 -0.3350 -0.6468
vn 0.4942 -0.5042 -0.7082
vn 0.3243 -0.6923 -0.6446
vn 0.9694 -0.1798 -0.1671
vn 0.8762 -0.3530 -0.3281
vn 0.8453 -0.1762 -0.5043
vn 0.9441 0.0003 -0.3298
vn 0.9710 -0.1817 0.1554
vn 0.9311 -0.3645 -0.0109
vn 1.0000 0.0000 0.0001
vn -0.3243 -0.6923 -0.6446
vn -0.1810 0.5758 -0.7973
vn -0.3351 0.7155 -0.6129
vn 0.0000 0.9983 0.0575
vn -0.1699 0.9802 -0.1017
vn -0.1736 0.8736 -0.4545
vn 0.0000 0.7592 -0.6508
vn 0.3262 0.8774 0.3517
vn 0.5094 0.8378 0.1964
vn 0.3401 0.9389 0.0522
vn 0.1650 0.9640 0.2082
vn 0.1736 0.8736 -0.4545
vn 0.3351 0.7155 -0.6129
vn 0.1699 0.9802 -0.1017
vn 0.0000 0.9623 -0.2720
vn 0.5071 0.5187 -0.6883
vn 0.5967 0.6092 -0.5223
vn 0.9689 0.1810 0.1685
vn 0.9714 0.1804 -0.1541
vn 0.9311 0.3645 0.0159
vn 0.6961 0.3412 -0.6317
vn 0.8508 0.1783 -0.4944
vn 0.8802 -0.3607 0.3085
vn 0.8251 -0.5470 0.1415
vn 0.7320 -0.0008 0.6813
vn 0.8496 -0.1819 0.4951
vn 0.9440 -0.0003 0.3299
vn 0.8441 0.1798 0.5052
vn 0.7342 -0.4972 -0.4622
vn 0.5817 -0.5950 -0.5546
vn 0.4805 -0.7463 -0.4605
vn 0.1671 -0.9761 0.1391
vn 0.0000 -0.9998 -0.0159
vn 0.1682 -0.9706 -0.1719
vn 0.3404 -0.9401 -0.0168
vn 0.1684 -0.8477 -0.5030
vn -0.3330 -0.8961 0.2933
vn -0.3404 -0.9401 -0.0168
vn -0.1671 -0.9761 0.1391
vn -0.1684 -0.8477 -0.5030
vn 0.7465 0.5058 -0.4323
vn 0.8833 0.3563 -0.3045
vn 0.6935 -0.7203 -0.0166
vn 0.8236 -0.5410 -0.1700
vn 0.6910 -0.3490 0.6330
vn 0.7379 -0.5127 0.4389
vn 0.8728 0.3572 0.3324
vn 0.1866 -0.1992 0.9620
vn 0.3612 -0.3840 0.8497
vn 0.5559 -0.1894 0.8094
vn 0.3751 -0.0012 0.9270
vn -0.1866 -0.1992 0.9620
vn 0.0000 -0.3994 0.9167
vn 0.0000 -0.0012 1.0000
vn 0.1840 0.1942 0.9635
vn 0.6626 -0.6819 -0.3095
vn 0.8285 0.5444 -0.1309
vn 0.6932 0.7198 0.0362
vn 0.8198 0.5433 0.1807
vn 0.6526 0.6844 0.3250
vn -0.3530 0.3734 0.8579
vn -0.1840 0.1942 0.9635
vn 0.0000 0.3871 0.9220
vn -0.1704 0.5629 0.8088
vn 0.7254 0.5038 0.4690
vn 0.4670 0.7466 0.4737
vn 0.5684 0.6012 0.5616
vn 0.6799 0.3425 0.6483
vn 0.5499 0.1855 0.8143
vn -0.3612 -0.3840 0.8497
vn -0.1762 -0.5833 0.7929
vn 0.4973 -0.5273 0.6889
vn 0.5835 -0.6159 0.5293
vn 0.3239 -0.7174 0.6167
vn 0.1668 -0.8669 0.4696
vn 0.5159 -0.8396 -0.1702
vn 0.4845 0.5124 0.7090
vn 0.3530 0.3734 0.8579
vn 0.0000 -0.7579 0.6524
vn 0.1762 -0.5833 0.7929
vn -0.4973 -0.5273 0.6889
vn -0.3751 -0.0012 0.9270
vn -0.3239 -0.7174 0.6167
vn -0.1682 -0.9706 -0.1719
vn 0.0000 -0.9421 -0.3352
vn 0.1704 0.5629 0.8088
vn 0.3134 0.6940 0.6482
vn 0.1618 0.8405 0.5170
vn 0.0000 0.7304 0.6830
vn -0.9710 -0.1817 0.1554
vn 0.3357 -0.8834 -0.3270
vn -1.0000 0.0000 0.0001
vn -0.9689 0.1810 0.1685
vn -0.9311 0.3645 0.0159
vn -0.1668 -0.8669 0.4696
vn 0.0000 -0.9535 0.3015
vn -0.3422 0.9008 -0.2674
vn 0.0000 0.9318 0.3630
usemtl None
s 1
f 46/1/1 49/2/2 45/3/3 12/4/4
f 47/5/5 50/6/6 46/1/1 13/7/7
f 48/8/8 51/9/9 47/5/5 14/10/10
f 59/11/11 10/12/12 52/13/13 56/14/14
f 20/15/15 66/16/16 63/17/17 67/18/18
f 68/19/19 64/20/20 61/21/21 65/22/22
f 66/16/16 9/23/23 59/11/11 63/17/17
f 78/24/24 74/25/25 71/26/26 75/27/27
f 45/3/3 11/28/28 166/29/29 1/30/30
f 46/1/1 12/4/4 142/31/31 13/7/7
f 47/5/5 13/7/7 143/32/32 14/10/10
f 48/8/8 14/10/10 144/33/33 2/34/34
f 67/18/18 63/17/17 60/35/35 64/20/20
f 44/36/36 193/37/37 190/38/38 194/39/39
f 55/40/40 15/41/41 187/42/42 16/43/43
f 190/38/38 186/44/44 183/45/45 187/42/42
f 62/46/46 16/43/43 180/47/47 17/48/48
f 90/49/49 86/50/50 83/51/51 87/52/52
f 69/53/53 17/54/48 173/55/54 4/56/55
f 86/50/50 82/57/56 79/58/57 83/51/51
f 68/19/19 18/59/58 72/60/59 19/61/60
f 88/62/61 84/63/62 81/64/63 85/65/64
f 67/18/18 19/61/60 71/26/26 20/15/15
f 28/66/65 92/67/66 89/68/67 93/69/68
f 66/16/16 20/15/15 70/70/69 3/71/70
f 9/23/23 66/16/16 3/71/70 145/72/71
f 169/73/72 165/74/73 162/75/74 30/76/75
f 59/11/11 9/23/23 152/77/76 10/12/12
f 177/78/77 33/79/78 170/80/79 174/81/80
f 52/13/13 10/12/12 159/82/81 11/28/28
f 152/77/76 9/23/23 145/72/71 149/83/82
f 55/40/40 51/9/9 48/8/8 15/41/41
f 71/26/26 74/25/25 70/70/69 20/15/15
f 72/60/59 75/27/27 71/26/26 19/61/60
f 73/84/83 76/85/84 72/86/59 18/87/58
f 84/88/62 22/89/85 77/90/86 81/91/63
f 29/92/87 91/93/88 88/62/61 92/67/66
f 93/69/68 89/68/67 86/50/50 90/49/49
f 91/93/88 21/94/89 84/63/62 88/62/61
f 103/95/90 99/96/91 96/97/92 100/98/93
f 110/99/94 106/100/95 103/95/90 107/101/96
f 79/58/57 75/102/27 72/86/59 76/85/84
f 70/70/69 23/103/97 145/72/71 3/71/70
f 80/104/98 76/85/84 73/84/83 24/105/99
f 81/91/63 77/90/86 74/25/25 78/24/24
f 186/106/44 182/107/100 179/108/101 183/109/45
f 80/104/98 24/105/99 172/110/102 25/111/103
f 188/112/104 184/113/105 181/114/106 185/115/107
f 87/52/52 25/111/103 171/116/108 26/117/109
f 182/107/100 178/118/110 175/119/111 179/108/101
f 94/120/112 26/117/109 170/80/79 8/121/113
f 111/122/114 107/101/96 104/123/115 108/124/116
f 93/69/68 27/125/117 97/126/118 28/66/65
f 113/127/119 109/128/120 106/129/95 110/130/94
f 92/67/66 28/66/65 96/97/92 29/92/87
f 37/131/121 117/132/122 114/133/123 118/134/124
f 91/93/88 29/92/87 95/135/125 7/136/126
f 91/93/88 7/136/126 148/137/127 21/94/89
f 161/138/128 157/139/129 154/140/130 158/141/131
f 84/88/62 21/142/89 147/143/132 22/89/85
f 163/144/133 159/82/81 156/145/134 160/146/135
f 77/90/86 22/89/85 146/147/136 23/103/97
f 94/120/112 8/121/113 98/148/137 27/125/117
f 96/97/92 99/96/91 95/135/125 29/92/87
f 97/126/118 100/98/93 96/97/92 28/66/65
f 98/148/137 101/149/138 97/126/118 27/125/117
f 109/128/120 31/150/139 102/151/140 106/129/95
f 38/152/141 116/153/142 113/127/119 117/132/122
f 118/154/124 114/155/123 111/122/114 115/156/143
f 116/153/142 30/76/75 109/128/120 113/127/119
f 128/157/144 124/158/145 121/159/146 125/160/147
f 135/161/148 131/162/149 128/157/144 132/163/150
f 132/163/150 128/157/144 125/160/147 129/164/151
f 104/123/115 100/98/93 97/126/118 101/149/138
f 95/135/125 32/165/152 148/137/127 7/136/126
f 105/166/153 101/149/138 98/148/137 33/79/78
f 106/100/95 102/167/140 99/96/91 103/95/90
f 194/39/39 190/38/38 187/42/42 15/41/41
f 105/166/153 33/79/78 177/78/77 34/168/154
f 112/169/155 34/168/154 184/113/105 35/170/156
f 140/171/157 136/172/158 133/173/159 137/174/160
f 119/175/161 35/170/156 191/176/162 6/177/163
f 136/172/158 132/163/150 129/164/151 133/173/159
f 118/134/124 36/178/164 122/179/165 37/131/121
f 138/180/166 134/181/167 131/162/149 135/161/148
f 117/132/122 37/131/121 121/159/146 38/152/141
f 116/153/142 38/152/141 120/182/168 5/183/169
f 116/153/142 5/183/169 169/73/72 30/76/75
f 41/184/170 168/185/171 165/74/73 169/73/72
f 109/128/120 30/76/75 162/75/74 31/150/139
f 165/74/73 161/138/128 158/141/131 162/75/74
f 102/151/140 31/150/139 155/186/172 32/187/152
f 119/175/161 6/177/163 123/188/173 36/189/164
f 121/159/146 124/158/145 120/182/168 38/152/141
f 122/179/165 125/160/147 121/159/146 37/131/121
f 123/190/173 126/191/174 122/179/165 36/178/164
f 134/181/167 40/192/175 127/193/176 131/162/149
f 12/4/4 141/194/177 138/180/166 142/31/31
f 143/32/32 139/195/178 136/172/158 140/171/157
f 141/194/177 39/196/179 134/181/167 138/180/166
f 153/197/180 149/83/82 146/147/136 150/198/181
f 13/7/7 142/31/31 139/195/178 143/32/32
f 139/195/178 135/161/148 132/163/150 136/172/158
f 129/164/151 125/160/147 122/179/165 126/191/174
f 120/182/168 41/184/170 169/73/72 5/183/169
f 130/199/182 126/191/174 123/190/173 42/200/183
f 131/162/149 127/193/176 124/158/145 128/157/144
f 130/199/182 42/200/183 192/201/184 43/202/185
f 137/174/160 43/202/185 193/37/37 44/36/36
f 144/33/33 44/36/36 194/39/39 2/34/34
f 53/203/186 49/2/2 46/1/1 50/6/6
f 158/141/131 154/140/130 151/204/187 155/186/172
f 61/21/21 57/205/188 54/206/189 58/207/190
f 63/17/17 59/11/11 56/14/14 60/35/35
f 134/181/167 39/196/179 167/208/191 40/192/175
f 127/193/176 40/192/175 168/185/171 41/184/170
f 146/147/136 149/83/82 145/72/71 23/103/97
f 147/143/132 150/198/181 146/147/136 22/89/85
f 148/209/127 151/204/187 147/143/132 21/142/89
f 159/82/81 10/12/12 152/77/76 156/145/134
f 39/196/179 166/29/29 163/144/133 167/208/191
f 168/185/171 164/210/192 161/138/128 165/74/73
f 166/29/29 11/28/28 159/82/81 163/144/133
f 178/118/110 174/81/80 171/116/108 175/119/111
f 157/139/129 153/197/180 150/198/181 154/140/130
f 92/67/66 88/62/61 85/65/64 89/68/67
f 154/140/130 150/198/181 147/143/132 151/204/187
f 155/186/172 151/204/187 148/209/127 32/187/152
f 94/120/112 90/49/49 87/52/52 26/117/109
f 156/145/134 152/77/76 149/83/82 153/197/180
f 102/167/140 32/165/152 95/135/125 99/96/91
f 117/132/122 113/127/119 110/130/94 114/133/123
f 160/146/135 156/145/134 153/197/180 157/139/129
f 187/42/42 183/45/45 180/47/47 16/43/43
f 167/208/191 163/144/133 160/146/135 164/210/192
f 119/175/161 115/156/143 112/169/155 35/170/156
f 127/193/176 41/184/170 120/182/168 124/158/145
f 142/31/31 138/180/166 135/161/148 139/195/178
f 183/109/45 179/108/101 176/211/193 180/212/47
f 144/33/33 140/171/157 137/174/160 44/36/36
f 141/194/177 1/30/30 166/29/29 39/196/179
f 40/192/175 167/208/191 164/210/192 168/185/171
f 62/46/46 58/207/190 55/40/40 16/43/43
f 164/210/192 160/146/135 157/139/129 161/138/128
f 69/213/53 65/22/22 62/46/46 17/48/48
f 77/90/86 23/103/97 70/70/69 74/25/25
f 171/116/108 174/81/80 170/80/79 26/117/109
f 172/110/102 175/119/111 171/116/108 25/111/103
f 173/55/54 176/211/193 172/110/102 24/105/99
f 184/113/105 34/168/154 177/78/77 181/114/106
f 42/214/183 191/176/162 188/112/104 192/215/184
f 193/37/37 189/216/194 186/44/44 190/38/38
f 191/176/162 35/170/156 184/113/105 188/112/104
f 33/79/78 98/148/137 8/121/113 170/80/79
f 179/108/101 175/119/111 172/110/102 176/211/193
f 180/212/47 176/211/193 173/55/54 17/54/48
f 27/125/117 93/69/68 90/49/49 94/120/112
f 181/114/106 177/78/77 174/81/80 178/118/110
f 73/84/83 4/56/55 173/55/54 24/105/99
f 185/115/107 181/114/106 178/118/110 182/107/100
f 192/215/184 188/112/104 185/115/107 189/217/194
f 18/59/58 68/19/19 65/22/22 69/213/53
f 65/22/22 61/21/21 58/207/190 62/46/46
f 58/207/190 54/206/189 51/9/9 55/40/40
f 52/13/13 11/28/28 45/3/3 49/2/2
f 14/10/10 143/32/32 140/171/157 144/33/33
f 123/188/173 6/177/163 191/176/162 42/214/183
f 43/202/185 192/201/184 189/216/194 193/37/37
f 189/217/194 185/115/107 182/107/100 186/106/44
f 36/189/164 118/154/124 115/156/143 119/175/161
f 115/156/143 111/122/114 108/124/116 112/169/155
f 85/65/64 81/64/63 78/218/24 82/57/56
f 19/61/60 67/18/18 64/20/20 68/19/19
f 162/75/74 158/141/131 155/186/172 31/150/139
f 64/20/20 60/35/35 57/205/188 61/21/21
f 57/205/188 53/203/186 50/6/6 54/206/189
f 45/3/3 1/30/30 141/194/177 12/4/4
f 54/206/189 50/6/6 47/5/5 51/9/9
f 56/14/14 52/13/13 49/2/2 53/203/186
f 48/8/8 2/34/34 194/39/39 15/41/41
f 60/35/35 56/14/14 53/203/186 57/205/188
f 69/53/53 4/56/55 73/84/83 18/87/58
f 83/51/51 79/58/57 76/85/84 80/104/98
f 89/68/67 85/65/64 82/57/56 86/50/50
f 82/57/56 78/218/24 75/102/27 79/58/57
f 87/52/52 83/51/51 80/104/98 25/111/103
f 108/124/116 104/123/115 101/149/138 105/166/153
f 114/155/123 110/99/94 107/101/96 111/122/114
f 107/101/96 103/95/90 100/98/93 104/123/115
f 112/169/155 108/124/116 105/166/153 34/168/154
f 133/173/159 129/164/151 126/191/174 130/199/182
f 137/174/160 133/173/159 130/199/182 43/202/185
